<mxfile host="app.diagrams.net" modified="2021-05-16T15:36:00.157Z" agent="5.0 (Windows NT 10.0; Win64; x64) AppleWebKit/537.36 (KHTML, like Gecko) Chrome/90.0.4430.212 Safari/537.36" etag="CSxMCWkc2B59YRWpdVr_" version="14.6.13" type="github">
  <diagram id="lmp-3028J60qqvJ10MSY" name="Page-1">
    <mxGraphModel dx="354" dy="597" grid="1" gridSize="10" guides="1" tooltips="1" connect="1" arrows="1" fold="1" page="1" pageScale="1" pageWidth="827" pageHeight="1169" math="0" shadow="0">
      <root>
        <mxCell id="0" />
        <mxCell id="1" parent="0" />
        <mxCell id="X1imnLX5oX2nRQwccFb3-3" value="考试" style="rounded=0;whiteSpace=wrap;html=1;sketch=0;" vertex="1" parent="1">
          <mxGeometry x="230" y="440" width="80" height="45" as="geometry" />
        </mxCell>
        <mxCell id="X1imnLX5oX2nRQwccFb3-16" value="开始时间" style="ellipse;whiteSpace=wrap;html=1;rounded=0;sketch=0;" vertex="1" parent="1">
          <mxGeometry x="90" y="420" width="70" height="40" as="geometry" />
        </mxCell>
        <mxCell id="X1imnLX5oX2nRQwccFb3-17" value="" style="endArrow=none;html=1;exitX=1;exitY=0.5;exitDx=0;exitDy=0;entryX=0;entryY=0.5;entryDx=0;entryDy=0;" edge="1" parent="1" source="X1imnLX5oX2nRQwccFb3-16" target="X1imnLX5oX2nRQwccFb3-3">
          <mxGeometry width="50" height="50" relative="1" as="geometry">
            <mxPoint x="200" y="800" as="sourcePoint" />
            <mxPoint x="260" y="865" as="targetPoint" />
            <Array as="points">
              <mxPoint x="160" y="463" />
            </Array>
          </mxGeometry>
        </mxCell>
        <mxCell id="X1imnLX5oX2nRQwccFb3-18" value="考试日期" style="ellipse;whiteSpace=wrap;html=1;rounded=0;sketch=0;" vertex="1" parent="1">
          <mxGeometry x="120" y="360" width="70" height="40" as="geometry" />
        </mxCell>
        <mxCell id="X1imnLX5oX2nRQwccFb3-19" value="" style="endArrow=none;html=1;exitX=1;exitY=0.5;exitDx=0;exitDy=0;entryX=0;entryY=0.5;entryDx=0;entryDy=0;" edge="1" parent="1" source="X1imnLX5oX2nRQwccFb3-18" target="X1imnLX5oX2nRQwccFb3-3">
          <mxGeometry width="50" height="50" relative="1" as="geometry">
            <mxPoint x="10" y="315" as="sourcePoint" />
            <mxPoint x="70" y="380" as="targetPoint" />
            <Array as="points">
              <mxPoint x="210" y="380" />
              <mxPoint x="210" y="463" />
            </Array>
          </mxGeometry>
        </mxCell>
        <mxCell id="X1imnLX5oX2nRQwccFb3-20" value="结束时间" style="ellipse;whiteSpace=wrap;html=1;rounded=0;sketch=0;" vertex="1" parent="1">
          <mxGeometry x="90" y="470" width="70" height="40" as="geometry" />
        </mxCell>
        <mxCell id="X1imnLX5oX2nRQwccFb3-21" value="" style="endArrow=none;html=1;exitX=1;exitY=0.5;exitDx=0;exitDy=0;entryX=0;entryY=0.5;entryDx=0;entryDy=0;" edge="1" parent="1" source="X1imnLX5oX2nRQwccFb3-20" target="X1imnLX5oX2nRQwccFb3-3">
          <mxGeometry width="50" height="50" relative="1" as="geometry">
            <mxPoint x="200" y="860" as="sourcePoint" />
            <mxPoint x="230" y="522.5" as="targetPoint" />
            <Array as="points">
              <mxPoint x="160" y="463" />
            </Array>
          </mxGeometry>
        </mxCell>
        <mxCell id="X1imnLX5oX2nRQwccFb3-22" value="&lt;u&gt;考试教室&lt;/u&gt;" style="ellipse;whiteSpace=wrap;html=1;rounded=0;sketch=0;" vertex="1" parent="1">
          <mxGeometry x="120" y="525" width="70" height="40" as="geometry" />
        </mxCell>
        <mxCell id="X1imnLX5oX2nRQwccFb3-23" value="" style="endArrow=none;html=1;exitX=1;exitY=0.5;exitDx=0;exitDy=0;entryX=0;entryY=0.5;entryDx=0;entryDy=0;" edge="1" parent="1" source="X1imnLX5oX2nRQwccFb3-22" target="X1imnLX5oX2nRQwccFb3-3">
          <mxGeometry width="50" height="50" relative="1" as="geometry">
            <mxPoint x="10" y="480" as="sourcePoint" />
            <mxPoint x="245" y="429" as="targetPoint" />
            <Array as="points">
              <mxPoint x="210" y="545" />
              <mxPoint x="210" y="463" />
            </Array>
          </mxGeometry>
        </mxCell>
        <mxCell id="X1imnLX5oX2nRQwccFb3-24" value="" style="group" vertex="1" connectable="0" parent="1">
          <mxGeometry x="360" y="230" width="210" height="160" as="geometry" />
        </mxCell>
        <mxCell id="X1imnLX5oX2nRQwccFb3-2" value="教师" style="rounded=0;whiteSpace=wrap;html=1;sketch=0;" vertex="1" parent="X1imnLX5oX2nRQwccFb3-24">
          <mxGeometry y="110" width="90" height="50" as="geometry" />
        </mxCell>
        <mxCell id="X1imnLX5oX2nRQwccFb3-8" value="姓名" style="ellipse;whiteSpace=wrap;html=1;rounded=0;sketch=0;" vertex="1" parent="X1imnLX5oX2nRQwccFb3-24">
          <mxGeometry x="140" y="115" width="70" height="40" as="geometry" />
        </mxCell>
        <mxCell id="X1imnLX5oX2nRQwccFb3-9" value="" style="endArrow=none;html=1;exitX=0;exitY=0.5;exitDx=0;exitDy=0;entryX=1;entryY=0.5;entryDx=0;entryDy=0;" edge="1" parent="X1imnLX5oX2nRQwccFb3-24" source="X1imnLX5oX2nRQwccFb3-8">
          <mxGeometry width="50" height="50" relative="1" as="geometry">
            <mxPoint x="30" y="70" as="sourcePoint" />
            <mxPoint x="90" y="135" as="targetPoint" />
          </mxGeometry>
        </mxCell>
        <mxCell id="X1imnLX5oX2nRQwccFb3-10" value="&lt;u&gt;工作证编号&lt;/u&gt;" style="ellipse;whiteSpace=wrap;html=1;rounded=0;sketch=0;" vertex="1" parent="X1imnLX5oX2nRQwccFb3-24">
          <mxGeometry x="10" width="70" height="40" as="geometry" />
        </mxCell>
        <mxCell id="X1imnLX5oX2nRQwccFb3-11" value="" style="endArrow=none;html=1;exitX=0.5;exitY=1;exitDx=0;exitDy=0;" edge="1" parent="X1imnLX5oX2nRQwccFb3-24" source="X1imnLX5oX2nRQwccFb3-10" target="X1imnLX5oX2nRQwccFb3-2">
          <mxGeometry width="50" height="50" relative="1" as="geometry">
            <mxPoint x="-100" y="-45" as="sourcePoint" />
            <mxPoint x="-40" y="20" as="targetPoint" />
          </mxGeometry>
        </mxCell>
        <mxCell id="X1imnLX5oX2nRQwccFb3-25" value="监考" style="rhombus;whiteSpace=wrap;html=1;rounded=0;sketch=0;" vertex="1" parent="1">
          <mxGeometry x="235" y="345" width="70" height="40" as="geometry" />
        </mxCell>
        <mxCell id="X1imnLX5oX2nRQwccFb3-26" value="主考" style="rhombus;whiteSpace=wrap;html=1;rounded=0;sketch=0;" vertex="1" parent="1">
          <mxGeometry x="370" y="442.5" width="70" height="40" as="geometry" />
        </mxCell>
        <mxCell id="X1imnLX5oX2nRQwccFb3-27" value="(1，n）" style="endArrow=none;html=1;entryX=0.5;entryY=1;entryDx=0;entryDy=0;" edge="1" parent="1" target="X1imnLX5oX2nRQwccFb3-26">
          <mxGeometry width="50" height="50" relative="1" as="geometry">
            <mxPoint x="405" y="540" as="sourcePoint" />
            <mxPoint x="420" y="440" as="targetPoint" />
            <Array as="points">
              <mxPoint x="405" y="510" />
            </Array>
          </mxGeometry>
        </mxCell>
        <mxCell id="X1imnLX5oX2nRQwccFb3-28" value="（1，1）" style="endArrow=none;html=1;entryX=0.5;entryY=1;entryDx=0;entryDy=0;exitX=0.5;exitY=0;exitDx=0;exitDy=0;" edge="1" parent="1">
          <mxGeometry width="50" height="50" relative="1" as="geometry">
            <mxPoint x="407" y="442.5" as="sourcePoint" />
            <mxPoint x="407" y="390" as="targetPoint" />
          </mxGeometry>
        </mxCell>
        <mxCell id="X1imnLX5oX2nRQwccFb3-29" value="" style="group" vertex="1" connectable="0" parent="1">
          <mxGeometry x="360" y="540" width="210" height="160" as="geometry" />
        </mxCell>
        <mxCell id="X1imnLX5oX2nRQwccFb3-1" value="课程" style="rounded=0;whiteSpace=wrap;html=1;sketch=0;" vertex="1" parent="X1imnLX5oX2nRQwccFb3-29">
          <mxGeometry width="90" height="50" as="geometry" />
        </mxCell>
        <mxCell id="X1imnLX5oX2nRQwccFb3-4" value="&lt;u&gt;课程号&lt;/u&gt;" style="ellipse;whiteSpace=wrap;html=1;rounded=0;sketch=0;" vertex="1" parent="X1imnLX5oX2nRQwccFb3-29">
          <mxGeometry x="10" y="120" width="70" height="40" as="geometry" />
        </mxCell>
        <mxCell id="X1imnLX5oX2nRQwccFb3-5" value="" style="endArrow=none;html=1;entryX=0.5;entryY=1;entryDx=0;entryDy=0;" edge="1" parent="X1imnLX5oX2nRQwccFb3-29" source="X1imnLX5oX2nRQwccFb3-4" target="X1imnLX5oX2nRQwccFb3-1">
          <mxGeometry width="50" height="50" relative="1" as="geometry">
            <mxPoint x="30" y="-40" as="sourcePoint" />
            <mxPoint x="80" y="-90" as="targetPoint" />
          </mxGeometry>
        </mxCell>
        <mxCell id="X1imnLX5oX2nRQwccFb3-6" value="课程名" style="ellipse;whiteSpace=wrap;html=1;rounded=0;sketch=0;" vertex="1" parent="X1imnLX5oX2nRQwccFb3-29">
          <mxGeometry x="140" y="5" width="70" height="40" as="geometry" />
        </mxCell>
        <mxCell id="X1imnLX5oX2nRQwccFb3-7" value="" style="endArrow=none;html=1;exitX=0;exitY=0.5;exitDx=0;exitDy=0;entryX=1;entryY=0.5;entryDx=0;entryDy=0;" edge="1" parent="X1imnLX5oX2nRQwccFb3-29" source="X1imnLX5oX2nRQwccFb3-6" target="X1imnLX5oX2nRQwccFb3-1">
          <mxGeometry width="50" height="50" relative="1" as="geometry">
            <mxPoint x="30" y="-40" as="sourcePoint" />
            <mxPoint x="80" y="-90" as="targetPoint" />
          </mxGeometry>
        </mxCell>
        <mxCell id="X1imnLX5oX2nRQwccFb3-31" value="(1，n)" style="endArrow=none;html=1;exitX=0.5;exitY=1;exitDx=0;exitDy=0;entryX=0.5;entryY=0;entryDx=0;entryDy=0;" edge="1" parent="1" source="X1imnLX5oX2nRQwccFb3-25" target="X1imnLX5oX2nRQwccFb3-3">
          <mxGeometry width="50" height="50" relative="1" as="geometry">
            <mxPoint x="220" y="480" as="sourcePoint" />
            <mxPoint x="270" y="430" as="targetPoint" />
          </mxGeometry>
        </mxCell>
        <mxCell id="X1imnLX5oX2nRQwccFb3-33" value="(1，1）" style="endArrow=none;html=1;exitX=1;exitY=0.5;exitDx=0;exitDy=0;entryX=0;entryY=0.5;entryDx=0;entryDy=0;" edge="1" parent="1" source="X1imnLX5oX2nRQwccFb3-25" target="X1imnLX5oX2nRQwccFb3-2">
          <mxGeometry width="50" height="50" relative="1" as="geometry">
            <mxPoint x="280" y="390" as="sourcePoint" />
            <mxPoint x="280" y="450" as="targetPoint" />
          </mxGeometry>
        </mxCell>
        <mxCell id="X1imnLX5oX2nRQwccFb3-35" value="安排" style="rhombus;whiteSpace=wrap;html=1;rounded=0;sketch=0;" vertex="1" parent="1">
          <mxGeometry x="235" y="550" width="70" height="40" as="geometry" />
        </mxCell>
        <mxCell id="X1imnLX5oX2nRQwccFb3-36" value="(1，n）" style="endArrow=none;html=1;entryX=0.5;entryY=1;entryDx=0;entryDy=0;" edge="1" parent="1" target="X1imnLX5oX2nRQwccFb3-3">
          <mxGeometry width="50" height="50" relative="1" as="geometry">
            <mxPoint x="270" y="550" as="sourcePoint" />
            <mxPoint x="270" y="645" as="targetPoint" />
          </mxGeometry>
        </mxCell>
        <mxCell id="X1imnLX5oX2nRQwccFb3-37" value="(1，1）" style="endArrow=none;html=1;exitX=1;exitY=0.5;exitDx=0;exitDy=0;entryX=0;entryY=0.5;entryDx=0;entryDy=0;" edge="1" parent="1" source="X1imnLX5oX2nRQwccFb3-35">
          <mxGeometry width="50" height="50" relative="1" as="geometry">
            <mxPoint x="280" y="595" as="sourcePoint" />
            <mxPoint x="360" y="570" as="targetPoint" />
          </mxGeometry>
        </mxCell>
      </root>
    </mxGraphModel>
  </diagram>
</mxfile>
